<?xml version="1.0" encoding="UTF-8" standalone="no"?>
<!DOCTYPE svg PUBLIC "-//W3C//DTD SVG 1.1//EN"
 "http://www.w3.org/Graphics/SVG/1.1/DTD/svg11.dtd">
<!-- Generated by graphviz version 2.36.0 (20140111.2315)
 -->
<!-- Title: graphname Pages: 1 -->
<svg width="254pt" height="279pt"
 viewBox="0.00 0.00 254.17 279.17" xmlns="http://www.w3.org/2000/svg" xmlns:xlink="http://www.w3.org/1999/xlink">
<g id="graph0" class="graph" transform="scale(2.08333 2.08333) rotate(0) translate(4 130)">
<title>graphname</title>
<polygon fill="white" stroke="none" points="-4,4 -4,-130 118,-130 118,4 -4,4"/>
<!-- seismic_processing_lowpass_filter_d7c67068&#45;536a&#45;411c&#45;952d&#45;64c1fc70fb75 -->
<g id="node1" class="node"><title>seismic_processing_lowpass_filter_d7c67068&#45;536a&#45;411c&#45;952d&#45;64c1fc70fb75</title>
<polygon fill="#9fb1fc" stroke="#0000ff" points="106.604,-126 7.3957,-126 7.3957,-90 106.604,-90 106.604,-126"/>
<text text-anchor="middle" x="57" y="-103.8" font-family="Times,serif" font-size="14.00">Lowpass Filter</text>
</g>
<!-- ann_50e702c1&#45;0ef4&#45;4fe4&#45;86ac&#45;8bc1a5bf7b56 -->
<g id="node2" class="node"><title>ann_50e702c1&#45;0ef4&#45;4fe4&#45;86ac&#45;8bc1a5bf7b56</title>
<polygon fill="none" stroke="gray" points="108,-53.5 0,-53.5 0,-0.5 114,-0.5 114,-47.5 108,-53.5"/>
<polyline fill="none" stroke="gray" points="108,-53.5 108,-47.5 "/>
<polyline fill="none" stroke="gray" points="114,-47.5 108,-47.5 "/>
<text text-anchor="start" x="11" y="-37.5" font-family="Times,serif" font-size="10.00" fill="#555555">frequency</text>
<text text-anchor="start" x="55" y="-37.5" font-family="Times,serif" font-size="10.00">1.0</text>
<text text-anchor="start" x="11" y="-23" font-family="Times,serif" font-size="10.00" fill="#555555">type</text>
<text text-anchor="start" x="54.8374" y="-23" font-family="Times,serif" font-size="10.00">Butterworth</text>
<text text-anchor="start" x="11" y="-9" font-family="Times,serif" font-size="10.00" fill="#555555">order</text>
<text text-anchor="start" x="55" y="-9" font-family="Times,serif" font-size="10.00">2</text>
</g>
<!-- ann_50e702c1&#45;0ef4&#45;4fe4&#45;86ac&#45;8bc1a5bf7b56&#45;&gt;seismic_processing_lowpass_filter_d7c67068&#45;536a&#45;411c&#45;952d&#45;64c1fc70fb75 -->
<g id="edge1" class="edge"><title>ann_50e702c1&#45;0ef4&#45;4fe4&#45;86ac&#45;8bc1a5bf7b56&#45;&gt;seismic_processing_lowpass_filter_d7c67068&#45;536a&#45;411c&#45;952d&#45;64c1fc70fb75</title>
<path fill="none" stroke="gray" stroke-dasharray="5,2" d="M57,-53.8676C57,-65.5674 57,-79.0861 57,-89.5592"/>
</g>
</g>
</svg>
