<?xml version="1.0" encoding="UTF-8" standalone="no"?>
<!DOCTYPE svg PUBLIC "-//W3C//DTD SVG 1.1//EN"
 "http://www.w3.org/Graphics/SVG/1.1/DTD/svg11.dtd">
<!-- Generated by graphviz version 2.36.0 (20140111.2315)
 -->
<!-- Title: graphname Pages: 1 -->
<svg width="1583pt" height="1371pt"
 viewBox="0.00 0.00 1583.33 1370.83" xmlns="http://www.w3.org/2000/svg" xmlns:xlink="http://www.w3.org/1999/xlink">
<g id="graph0" class="graph" transform="scale(2.08333 2.08333) rotate(0) translate(4 654)">
<title>graphname</title>
<polygon fill="white" stroke="none" points="-4,4 -4,-654 756,-654 756,4 -4,4"/>
<!-- lion_krischer_814baeed&#45;dde0&#45;4fad&#45;a42c&#45;c05c7568e685 -->
<g id="node1" class="node"><title>lion_krischer_814baeed&#45;dde0&#45;4fad&#45;a42c&#45;c05c7568e685</title>
<polygon fill="#fed37f" stroke="black" points="280.511,-637.562 207,-650 133.489,-637.562 133.558,-617.438 280.442,-617.438 280.511,-637.562"/>
<text text-anchor="middle" x="207" y="-627.8" font-family="Times,serif" font-size="14.00">Lion Krischer</text>
</g>
<!-- ann_1f7135cc&#45;b8b0&#45;4a20&#45;b42c&#45;a44debef6d3a -->
<g id="node2" class="node"><title>ann_1f7135cc&#45;b8b0&#45;4a20&#45;b42c&#45;a44debef6d3a</title>
<polygon fill="none" stroke="gray" points="218.5,-567.5 -0.5,-567.5 -0.5,-528.5 224.5,-528.5 224.5,-561.5 218.5,-567.5"/>
<polyline fill="none" stroke="gray" points="218.5,-567.5 218.5,-561.5 "/>
<polyline fill="none" stroke="gray" points="224.5,-561.5 218.5,-561.5 "/>
<text text-anchor="start" x="11" y="-551.5" font-family="Times,serif" font-size="10.00" fill="#555555">eMail</text>
<text text-anchor="start" x="55.5835" y="-551.5" font-family="Times,serif" font-size="10.00">krischer[at]geophysik.uni&#45;muenchen.de</text>
<text text-anchor="start" x="11" y="-537" font-family="Times,serif" font-size="10.00" fill="#555555">institution</text>
<text text-anchor="start" x="56" y="-537" font-family="Times,serif" font-size="10.00">LMU</text>
</g>
<!-- ann_1f7135cc&#45;b8b0&#45;4a20&#45;b42c&#45;a44debef6d3a&#45;&gt;lion_krischer_814baeed&#45;dde0&#45;4fad&#45;a42c&#45;c05c7568e685 -->
<g id="edge1" class="edge"><title>ann_1f7135cc&#45;b8b0&#45;4a20&#45;b42c&#45;a44debef6d3a&#45;&gt;lion_krischer_814baeed&#45;dde0&#45;4fad&#45;a42c&#45;c05c7568e685</title>
<path fill="none" stroke="gray" stroke-dasharray="5,2" d="M133.557,-567.607C151.075,-582.728 175.384,-603.711 191.153,-617.321"/>
</g>
<!-- obspy_0.9.0_05b682f3&#45;4b4d&#45;40a5&#45;970e&#45;bae74bc5ca7a -->
<g id="node3" class="node"><title>obspy_0.9.0_05b682f3&#45;4b4d&#45;40a5&#45;970e&#45;bae74bc5ca7a</title>
<polygon fill="#fed37f" stroke="black" points="525.494,-553.562 459,-566 392.506,-553.562 392.569,-533.438 525.431,-533.438 525.494,-553.562"/>
<text text-anchor="middle" x="459" y="-543.8" font-family="Times,serif" font-size="14.00">ObsPy 0.9.0</text>
</g>
<!-- obspy_0.9.0_05b682f3&#45;4b4d&#45;40a5&#45;970e&#45;bae74bc5ca7a&#45;&gt;lion_krischer_814baeed&#45;dde0&#45;4fad&#45;a42c&#45;c05c7568e685 -->
<g id="edge6" class="edge"><title>obspy_0.9.0_05b682f3&#45;4b4d&#45;40a5&#45;970e&#45;bae74bc5ca7a&#45;&gt;lion_krischer_814baeed&#45;dde0&#45;4fad&#45;a42c&#45;c05c7568e685</title>
<path fill="none" stroke="#fed37f" d="M425.796,-559.804C383.195,-573.667 308.837,-597.863 258.774,-614.153"/>
<polygon fill="#fed37f" stroke="#fed37f" points="257.528,-610.878 249.102,-617.3 259.694,-617.534 257.528,-610.878"/>
<text text-anchor="middle" x="376.511" y="-588" font-family="Times,serif" font-size="10.00"> actedOnBehalfOf</text>
</g>
<!-- ann_17c9783d&#45;91de&#45;45a2&#45;be93&#45;33b2146cf81e -->
<g id="node4" class="node"><title>ann_17c9783d&#45;91de&#45;45a2&#45;be93&#45;33b2146cf81e</title>
<polygon fill="none" stroke="gray" points="746.5,-481.5 575.5,-481.5 575.5,-428.5 752.5,-428.5 752.5,-475.5 746.5,-481.5"/>
<polyline fill="none" stroke="gray" points="746.5,-481.5 746.5,-475.5 "/>
<polyline fill="none" stroke="gray" points="752.5,-475.5 746.5,-475.5 "/>
<text text-anchor="start" x="587" y="-465.5" font-family="Times,serif" font-size="10.00" fill="#555555">softwareName</text>
<text text-anchor="start" x="656" y="-465.5" font-family="Times,serif" font-size="10.00">ObsPy</text>
<text text-anchor="start" x="587" y="-451" font-family="Times,serif" font-size="10.00" fill="#555555">softwareVersion</text>
<text text-anchor="start" x="656" y="-451" font-family="Times,serif" font-size="10.00">0.9.0</text>
<text text-anchor="start" x="587" y="-437" font-family="Times,serif" font-size="10.00" fill="#555555">URL</text>
<text text-anchor="start" x="655.848" y="-437" font-family="Times,serif" font-size="10.00">http://www.obspy.org</text>
</g>
<!-- ann_17c9783d&#45;91de&#45;45a2&#45;be93&#45;33b2146cf81e&#45;&gt;obspy_0.9.0_05b682f3&#45;4b4d&#45;40a5&#45;970e&#45;bae74bc5ca7a -->
<g id="edge2" class="edge"><title>ann_17c9783d&#45;91de&#45;45a2&#45;be93&#45;33b2146cf81e&#45;&gt;obspy_0.9.0_05b682f3&#45;4b4d&#45;40a5&#45;970e&#45;bae74bc5ca7a</title>
<path fill="none" stroke="gray" stroke-dasharray="5,2" d="M618.504,-481.542C600.813,-491.024 580.212,-501.526 561,-510 541.524,-518.591 519.368,-526.807 500.693,-533.305"/>
</g>
<!-- waveform_data_149651c2&#45;8d9d&#45;409e&#45;aab3&#45;41986aa49e01 -->
<g id="node5" class="node"><title>waveform_data_149651c2&#45;8d9d&#45;409e&#45;aab3&#45;41986aa49e01</title>
<ellipse fill="#fffc87" stroke="#808080" cx="309" cy="-548" rx="66.234" ry="18"/>
<text text-anchor="middle" x="309" y="-543.8" font-family="Times,serif" font-size="14.00">Waveform Data</text>
</g>
<!-- seismic_processing_detrend_39611d7f&#45;2cbe&#45;4237&#45;ad56&#45;fc4fe54d9ae8 -->
<g id="node6" class="node"><title>seismic_processing_detrend_39611d7f&#45;2cbe&#45;4237&#45;ad56&#45;fc4fe54d9ae8</title>
<polygon fill="#9fb1fc" stroke="#0000ff" points="349.979,-473 292.021,-473 292.021,-437 349.979,-437 349.979,-473"/>
<text text-anchor="middle" x="321" y="-450.8" font-family="Times,serif" font-size="14.00">detrend</text>
</g>
<!-- seismic_processing_detrend_39611d7f&#45;2cbe&#45;4237&#45;ad56&#45;fc4fe54d9ae8&#45;&gt;obspy_0.9.0_05b682f3&#45;4b4d&#45;40a5&#45;970e&#45;bae74bc5ca7a -->
<g id="edge7" class="edge"><title>seismic_processing_detrend_39611d7f&#45;2cbe&#45;4237&#45;ad56&#45;fc4fe54d9ae8&#45;&gt;obspy_0.9.0_05b682f3&#45;4b4d&#45;40a5&#45;970e&#45;bae74bc5ca7a</title>
<path fill="none" stroke="#fed37f" d="M327.982,-473.248C333.563,-485.072 342.446,-500.314 354.472,-510 364.686,-518.227 376.868,-524.696 389.246,-529.76"/>
<polygon fill="#fed37f" stroke="#fed37f" points="388.129,-533.08 398.72,-533.364 390.618,-526.537 388.129,-533.08"/>
<text text-anchor="middle" x="394.764" y="-502" font-family="Times,serif" font-size="10.00"> wasAssociatedWith</text>
</g>
<!-- seismic_processing_detrend_39611d7f&#45;2cbe&#45;4237&#45;ad56&#45;fc4fe54d9ae8&#45;&gt;waveform_data_149651c2&#45;8d9d&#45;409e&#45;aab3&#45;41986aa49e01 -->
<g id="edge8" class="edge"><title>seismic_processing_detrend_39611d7f&#45;2cbe&#45;4237&#45;ad56&#45;fc4fe54d9ae8&#45;&gt;waveform_data_149651c2&#45;8d9d&#45;409e&#45;aab3&#45;41986aa49e01</title>
<path fill="none" stroke="#8b0000" d="M315.799,-473.39C313.638,-481.414 311.36,-491.111 310.17,-500 309.323,-506.323 308.885,-513.166 308.684,-519.622"/>
<polygon fill="#8b0000" stroke="#8b0000" points="305.179,-519.914 308.54,-529.961 312.179,-520.011 305.179,-519.914"/>
<text text-anchor="middle" x="320.415" y="-502" font-family="Times,serif" font-size="10.00" fill="red"> used</text>
</g>
<!-- ann_505d09e9&#45;3850&#45;4af9&#45;b785&#45;04261554704f -->
<g id="node7" class="node"><title>ann_505d09e9&#45;3850&#45;4af9&#45;b785&#45;04261554704f</title>
<polygon fill="none" stroke="gray" points="266,-382 206,-382 206,-346 272,-346 272,-376 266,-382"/>
<polyline fill="none" stroke="gray" points="266,-382 266,-376 "/>
<polyline fill="none" stroke="gray" points="272,-376 266,-376 "/>
<text text-anchor="start" x="217" y="-360.5" font-family="Times,serif" font-size="10.00" fill="#555555">type</text>
<text text-anchor="start" x="238.618" y="-360.5" font-family="Times,serif" font-size="10.00">linear</text>
</g>
<!-- ann_505d09e9&#45;3850&#45;4af9&#45;b785&#45;04261554704f&#45;&gt;seismic_processing_detrend_39611d7f&#45;2cbe&#45;4237&#45;ad56&#45;fc4fe54d9ae8 -->
<g id="edge3" class="edge"><title>ann_505d09e9&#45;3850&#45;4af9&#45;b785&#45;04261554704f&#45;&gt;seismic_processing_detrend_39611d7f&#45;2cbe&#45;4237&#45;ad56&#45;fc4fe54d9ae8</title>
<path fill="none" stroke="gray" stroke-dasharray="5,2" d="M254.81,-382.16C269.331,-397.92 290.733,-421.149 305.238,-436.893"/>
</g>
<!-- waveform_data_909b4d40&#45;4dca&#45;443f&#45;906c&#45;b4cd8bf5d014 -->
<g id="node8" class="node"><title>waveform_data_909b4d40&#45;4dca&#45;443f&#45;906c&#45;b4cd8bf5d014</title>
<ellipse fill="#fffc87" stroke="#808080" cx="356" cy="-364" rx="66.234" ry="18"/>
<text text-anchor="middle" x="356" y="-359.8" font-family="Times,serif" font-size="14.00">Waveform Data</text>
</g>
<!-- waveform_data_909b4d40&#45;4dca&#45;443f&#45;906c&#45;b4cd8bf5d014&#45;&gt;seismic_processing_detrend_39611d7f&#45;2cbe&#45;4237&#45;ad56&#45;fc4fe54d9ae8 -->
<g id="edge9" class="edge"><title>waveform_data_909b4d40&#45;4dca&#45;443f&#45;906c&#45;b4cd8bf5d014&#45;&gt;seismic_processing_detrend_39611d7f&#45;2cbe&#45;4237&#45;ad56&#45;fc4fe54d9ae8</title>
<path fill="none" stroke="darkgreen" d="M349.252,-382.16C344.216,-394.965 337.241,-412.701 331.482,-427.346"/>
<polygon fill="darkgreen" stroke="darkgreen" points="328.13,-426.305 327.728,-436.893 334.645,-428.867 328.13,-426.305"/>
<text text-anchor="middle" x="376.403" y="-402" font-family="Times,serif" font-size="10.00" fill="darkgreen"> wasGeneratedBy</text>
</g>
<!-- seismic_processing_lowpass_filter_3217ff68&#45;cf34&#45;4878&#45;87c7&#45;a83451866012 -->
<g id="node9" class="node"><title>seismic_processing_lowpass_filter_3217ff68&#45;cf34&#45;4878&#45;87c7&#45;a83451866012</title>
<polygon fill="#9fb1fc" stroke="#0000ff" points="439.053,-300 344.947,-300 344.947,-264 439.053,-264 439.053,-300"/>
<text text-anchor="middle" x="392" y="-277.8" font-family="Times,serif" font-size="14.00">lowpass_filter</text>
</g>
<!-- seismic_processing_lowpass_filter_3217ff68&#45;cf34&#45;4878&#45;87c7&#45;a83451866012&#45;&gt;obspy_0.9.0_05b682f3&#45;4b4d&#45;40a5&#45;970e&#45;bae74bc5ca7a -->
<g id="edge10" class="edge"><title>seismic_processing_lowpass_filter_3217ff68&#45;cf34&#45;4878&#45;87c7&#45;a83451866012&#45;&gt;obspy_0.9.0_05b682f3&#45;4b4d&#45;40a5&#45;970e&#45;bae74bc5ca7a</title>
<path fill="none" stroke="#fed37f" d="M405.378,-300.173C414.112,-312.3 424.974,-329.302 431,-346 453.099,-407.231 457.884,-484.776 458.836,-523.193"/>
<polygon fill="#fed37f" stroke="#fed37f" points="455.34,-523.437 459.019,-533.372 462.338,-523.311 455.34,-523.437"/>
<text text-anchor="middle" x="487.764" y="-402" font-family="Times,serif" font-size="10.00"> wasAssociatedWith</text>
</g>
<!-- seismic_processing_lowpass_filter_3217ff68&#45;cf34&#45;4878&#45;87c7&#45;a83451866012&#45;&gt;waveform_data_909b4d40&#45;4dca&#45;443f&#45;906c&#45;b4cd8bf5d014 -->
<g id="edge11" class="edge"><title>seismic_processing_lowpass_filter_3217ff68&#45;cf34&#45;4878&#45;87c7&#45;a83451866012&#45;&gt;waveform_data_909b4d40&#45;4dca&#45;443f&#45;906c&#45;b4cd8bf5d014</title>
<path fill="none" stroke="#8b0000" d="M384.189,-300.359C379.439,-310.914 373.278,-324.605 367.927,-336.495"/>
<polygon fill="#8b0000" stroke="#8b0000" points="364.585,-335.394 363.673,-345.95 370.968,-338.267 364.585,-335.394"/>
<text text-anchor="middle" x="386.415" y="-320" font-family="Times,serif" font-size="10.00" fill="red"> used</text>
</g>
<!-- ann_f5d799d2&#45;09e5&#45;45c1&#45;94b1&#45;7e3dff2ac9f4 -->
<g id="node10" class="node"><title>ann_f5d799d2&#45;09e5&#45;45c1&#45;94b1&#45;7e3dff2ac9f4</title>
<polygon fill="none" stroke="gray" points="363,-217.5 255,-217.5 255,-164.5 369,-164.5 369,-211.5 363,-217.5"/>
<polyline fill="none" stroke="gray" points="363,-217.5 363,-211.5 "/>
<polyline fill="none" stroke="gray" points="369,-211.5 363,-211.5 "/>
<text text-anchor="start" x="266" y="-201.5" font-family="Times,serif" font-size="10.00" fill="#555555">frequency</text>
<text text-anchor="start" x="310" y="-201.5" font-family="Times,serif" font-size="10.00">2.0</text>
<text text-anchor="start" x="266" y="-187" font-family="Times,serif" font-size="10.00" fill="#555555">type</text>
<text text-anchor="start" x="309.837" y="-187" font-family="Times,serif" font-size="10.00">Butterworth</text>
<text text-anchor="start" x="266" y="-173" font-family="Times,serif" font-size="10.00" fill="#555555">order</text>
<text text-anchor="start" x="310" y="-173" font-family="Times,serif" font-size="10.00">2</text>
</g>
<!-- ann_f5d799d2&#45;09e5&#45;45c1&#45;94b1&#45;7e3dff2ac9f4&#45;&gt;seismic_processing_lowpass_filter_3217ff68&#45;cf34&#45;4878&#45;87c7&#45;a83451866012 -->
<g id="edge4" class="edge"><title>ann_f5d799d2&#45;09e5&#45;45c1&#45;94b1&#45;7e3dff2ac9f4&#45;&gt;seismic_processing_lowpass_filter_3217ff68&#45;cf34&#45;4878&#45;87c7&#45;a83451866012</title>
<path fill="none" stroke="gray" stroke-dasharray="5,2" d="M335.139,-217.742C348.43,-232.528 364.759,-250.695 376.504,-263.761"/>
</g>
<!-- waveform_data_3267903a&#45;f984&#45;46f1&#45;b165&#45;a2780bd703a5 -->
<g id="node11" class="node"><title>waveform_data_3267903a&#45;f984&#45;46f1&#45;b165&#45;a2780bd703a5</title>
<ellipse fill="#fffc87" stroke="#808080" cx="453" cy="-191" rx="66.234" ry="18"/>
<text text-anchor="middle" x="453" y="-186.8" font-family="Times,serif" font-size="14.00">Waveform Data</text>
</g>
<!-- waveform_data_3267903a&#45;f984&#45;46f1&#45;b165&#45;a2780bd703a5&#45;&gt;seismic_processing_lowpass_filter_3217ff68&#45;cf34&#45;4878&#45;87c7&#45;a83451866012 -->
<g id="edge12" class="edge"><title>waveform_data_3267903a&#45;f984&#45;46f1&#45;b165&#45;a2780bd703a5&#45;&gt;seismic_processing_lowpass_filter_3217ff68&#45;cf34&#45;4878&#45;87c7&#45;a83451866012</title>
<path fill="none" stroke="darkgreen" d="M441.526,-208.74C432.525,-221.873 419.843,-240.377 409.566,-255.372"/>
<polygon fill="darkgreen" stroke="darkgreen" points="406.605,-253.5 403.838,-263.728 412.379,-257.458 406.605,-253.5"/>
<text text-anchor="middle" x="457.403" y="-238" font-family="Times,serif" font-size="10.00" fill="darkgreen"> wasGeneratedBy</text>
</g>
<!-- seismic_processing_decimate_619959e7&#45;ddde&#45;44d3&#45;a92e&#45;0f9eddc02fa1 -->
<g id="node12" class="node"><title>seismic_processing_decimate_619959e7&#45;ddde&#45;44d3&#45;a92e&#45;0f9eddc02fa1</title>
<polygon fill="#9fb1fc" stroke="#0000ff" points="556.026,-118 489.974,-118 489.974,-82 556.026,-82 556.026,-118"/>
<text text-anchor="middle" x="523" y="-95.8" font-family="Times,serif" font-size="14.00">decimate</text>
</g>
<!-- seismic_processing_decimate_619959e7&#45;ddde&#45;44d3&#45;a92e&#45;0f9eddc02fa1&#45;&gt;obspy_0.9.0_05b682f3&#45;4b4d&#45;40a5&#45;970e&#45;bae74bc5ca7a -->
<g id="edge13" class="edge"><title>seismic_processing_decimate_619959e7&#45;ddde&#45;44d3&#45;a92e&#45;0f9eddc02fa1&#45;&gt;obspy_0.9.0_05b682f3&#45;4b4d&#45;40a5&#45;970e&#45;bae74bc5ca7a</title>
<path fill="none" stroke="#fed37f" d="M530.462,-118.028C537.507,-135.676 547,-164.235 547,-190 547,-190 547,-190 547,-456 547,-487.514 519.391,-512.274 495.102,-527.96"/>
<polygon fill="#fed37f" stroke="#fed37f" points="493.054,-525.11 486.361,-533.324 496.715,-531.077 493.054,-525.11"/>
<text text-anchor="middle" x="587.764" y="-320" font-family="Times,serif" font-size="10.00"> wasAssociatedWith</text>
</g>
<!-- seismic_processing_decimate_619959e7&#45;ddde&#45;44d3&#45;a92e&#45;0f9eddc02fa1&#45;&gt;waveform_data_3267903a&#45;f984&#45;46f1&#45;b165&#45;a2780bd703a5 -->
<g id="edge14" class="edge"><title>seismic_processing_decimate_619959e7&#45;ddde&#45;44d3&#45;a92e&#45;0f9eddc02fa1&#45;&gt;waveform_data_3267903a&#45;f984&#45;46f1&#45;b165&#45;a2780bd703a5</title>
<path fill="none" stroke="#8b0000" d="M509.503,-118.16C498.978,-131.543 484.216,-150.311 472.42,-165.309"/>
<polygon fill="#8b0000" stroke="#8b0000" points="469.649,-163.171 466.218,-173.194 475.151,-167.498 469.649,-163.171"/>
<text text-anchor="middle" x="504.415" y="-138" font-family="Times,serif" font-size="10.00" fill="red"> used</text>
</g>
<!-- ann_06db2148&#45;554d&#45;447a&#45;9d34&#45;775f4664402a -->
<g id="node13" class="node"><title>ann_06db2148&#45;554d&#45;447a&#45;9d34&#45;775f4664402a</title>
<polygon fill="none" stroke="gray" points="488.5,-36 439.5,-36 439.5,-0 494.5,-0 494.5,-30 488.5,-36"/>
<polyline fill="none" stroke="gray" points="488.5,-36 488.5,-30 "/>
<polyline fill="none" stroke="gray" points="494.5,-30 488.5,-30 "/>
<text text-anchor="start" x="451" y="-14.5" font-family="Times,serif" font-size="10.00" fill="#555555">factor</text>
<text text-anchor="start" x="479" y="-14.5" font-family="Times,serif" font-size="10.00">4</text>
</g>
<!-- ann_06db2148&#45;554d&#45;447a&#45;9d34&#45;775f4664402a&#45;&gt;seismic_processing_decimate_619959e7&#45;ddde&#45;44d3&#45;a92e&#45;0f9eddc02fa1 -->
<g id="edge5" class="edge"><title>ann_06db2148&#45;554d&#45;447a&#45;9d34&#45;775f4664402a&#45;&gt;seismic_processing_decimate_619959e7&#45;ddde&#45;44d3&#45;a92e&#45;0f9eddc02fa1</title>
<path fill="none" stroke="gray" stroke-dasharray="5,2" d="M479.151,-36.3588C488.609,-49.8694 501.663,-68.5184 511.065,-81.9499"/>
</g>
<!-- waveform_data_2cb1cd16&#45;461e&#45;4a8a&#45;852c&#45;add64ff97f66 -->
<g id="node14" class="node"><title>waveform_data_2cb1cd16&#45;461e&#45;4a8a&#45;852c&#45;add64ff97f66</title>
<ellipse fill="#fffc87" stroke="#808080" cx="579" cy="-18" rx="66.234" ry="18"/>
<text text-anchor="middle" x="579" y="-13.8" font-family="Times,serif" font-size="14.00">Waveform Data</text>
</g>
<!-- waveform_data_2cb1cd16&#45;461e&#45;4a8a&#45;852c&#45;add64ff97f66&#45;&gt;seismic_processing_decimate_619959e7&#45;ddde&#45;44d3&#45;a92e&#45;0f9eddc02fa1 -->
<g id="edge15" class="edge"><title>waveform_data_2cb1cd16&#45;461e&#45;4a8a&#45;852c&#45;add64ff97f66&#45;&gt;seismic_processing_decimate_619959e7&#45;ddde&#45;44d3&#45;a92e&#45;0f9eddc02fa1</title>
<path fill="none" stroke="darkgreen" d="M567.124,-35.9659C559.528,-46.8168 549.531,-61.0981 540.974,-73.323"/>
<polygon fill="darkgreen" stroke="darkgreen" points="537.919,-71.5832 535.052,-81.7827 543.654,-75.5975 537.919,-71.5832"/>
<text text-anchor="middle" x="589.403" y="-56" font-family="Times,serif" font-size="10.00" fill="darkgreen"> wasGeneratedBy</text>
</g>
</g>
</svg>
