<?xml version="1.0" encoding="UTF-8" standalone="no"?>
<!DOCTYPE svg PUBLIC "-//W3C//DTD SVG 1.1//EN"
 "http://www.w3.org/Graphics/SVG/1.1/DTD/svg11.dtd">
<!-- Generated by graphviz version 2.36.0 (20140111.2315)
 -->
<!-- Title: graphname Pages: 1 -->
<svg width="2652pt" height="650pt"
 viewBox="0.00 0.00 2652.08 650.00" xmlns="http://www.w3.org/2000/svg" xmlns:xlink="http://www.w3.org/1999/xlink">
<g id="graph0" class="graph" transform="scale(2.08333 2.08333) rotate(0) translate(4 308)">
<title>graphname</title>
<polygon fill="white" stroke="none" points="-4,4 -4,-308 1269,-308 1269,4 -4,4"/>
<!-- lion_krischer_e11660a9&#45;4a58&#45;445c&#45;8abb&#45;90d7fc4e74db -->
<g id="node1" class="node"><title>lion_krischer_e11660a9&#45;4a58&#45;445c&#45;8abb&#45;90d7fc4e74db</title>
<polygon fill="#fed37f" stroke="black" points="408.511,-291.562 335,-304 261.489,-291.562 261.558,-271.438 408.442,-271.438 408.511,-291.562"/>
<text text-anchor="middle" x="335" y="-281.8" font-family="Times,serif" font-size="14.00">Lion Krischer</text>
</g>
<!-- ann_62e300e3&#45;6874&#45;47e0&#45;bf8c&#45;91ca4b1dde26 -->
<g id="node2" class="node"><title>ann_62e300e3&#45;6874&#45;47e0&#45;bf8c&#45;91ca4b1dde26</title>
<polygon fill="none" stroke="gray" points="530.5,-221.5 311.5,-221.5 311.5,-182.5 536.5,-182.5 536.5,-215.5 530.5,-221.5"/>
<polyline fill="none" stroke="gray" points="530.5,-221.5 530.5,-215.5 "/>
<polyline fill="none" stroke="gray" points="536.5,-215.5 530.5,-215.5 "/>
<text text-anchor="start" x="323" y="-205.5" font-family="Times,serif" font-size="10.00" fill="#555555">eMail</text>
<text text-anchor="start" x="367.583" y="-205.5" font-family="Times,serif" font-size="10.00">krischer[at]geophysik.uni&#45;muenchen.de</text>
<text text-anchor="start" x="323" y="-191" font-family="Times,serif" font-size="10.00" fill="#555555">institution</text>
<text text-anchor="start" x="368" y="-191" font-family="Times,serif" font-size="10.00">LMU</text>
</g>
<!-- ann_62e300e3&#45;6874&#45;47e0&#45;bf8c&#45;91ca4b1dde26&#45;&gt;lion_krischer_e11660a9&#45;4a58&#45;445c&#45;8abb&#45;90d7fc4e74db -->
<g id="edge1" class="edge"><title>ann_62e300e3&#45;6874&#45;47e0&#45;bf8c&#45;91ca4b1dde26&#45;&gt;lion_krischer_e11660a9&#45;4a58&#45;445c&#45;8abb&#45;90d7fc4e74db</title>
<path fill="none" stroke="gray" stroke-dasharray="5,2" d="M403.805,-221.607C387.393,-236.728 364.619,-257.711 349.846,-271.321"/>
</g>
<!-- james_smith_a7606f3a&#45;e9da&#45;4ce2&#45;ae9b&#45;8f702c5a8db7 -->
<g id="node3" class="node"><title>james_smith_a7606f3a&#45;e9da&#45;4ce2&#45;ae9b&#45;8f702c5a8db7</title>
<polygon fill="#fed37f" stroke="black" points="779.122,-291.562 711,-304 642.878,-291.562 642.941,-271.438 779.059,-271.438 779.122,-291.562"/>
<text text-anchor="middle" x="711" y="-281.8" font-family="Times,serif" font-size="14.00">James Smith</text>
</g>
<!-- ann_75fb1b9c&#45;83d7&#45;474e&#45;8518&#45;9a7f2e3d36ac -->
<g id="node4" class="node"><title>ann_75fb1b9c&#45;83d7&#45;474e&#45;8518&#45;9a7f2e3d36ac</title>
<polygon fill="none" stroke="gray" points="832,-221.5 682,-221.5 682,-182.5 838,-182.5 838,-215.5 832,-221.5"/>
<polyline fill="none" stroke="gray" points="832,-221.5 832,-215.5 "/>
<polyline fill="none" stroke="gray" points="838,-215.5 832,-215.5 "/>
<text text-anchor="start" x="693" y="-205.5" font-family="Times,serif" font-size="10.00" fill="#555555">eMail</text>
<text text-anchor="start" x="737.839" y="-205.5" font-family="Times,serif" font-size="10.00">jas11[at]princeton.edu</text>
<text text-anchor="start" x="693" y="-191" font-family="Times,serif" font-size="10.00" fill="#555555">institution</text>
<text text-anchor="start" x="738" y="-191" font-family="Times,serif" font-size="10.00">Princeton</text>
</g>
<!-- ann_75fb1b9c&#45;83d7&#45;474e&#45;8518&#45;9a7f2e3d36ac&#45;&gt;james_smith_a7606f3a&#45;e9da&#45;4ce2&#45;ae9b&#45;8f702c5a8db7 -->
<g id="edge2" class="edge"><title>ann_75fb1b9c&#45;83d7&#45;474e&#45;8518&#45;9a7f2e3d36ac&#45;&gt;james_smith_a7606f3a&#45;e9da&#45;4ce2&#45;ae9b&#45;8f702c5a8db7</title>
<path fill="none" stroke="gray" stroke-dasharray="5,2" d="M748.881,-221.607C739.845,-236.728 727.307,-257.711 719.174,-271.321"/>
</g>
<!-- specfem3d_globe_5.1.5_c2865c2f&#45;09ab&#45;4608&#45;aa54&#45;ed33f6b748d1 -->
<g id="node5" class="node"><title>specfem3d_globe_5.1.5_c2865c2f&#45;09ab&#45;4608&#45;aa54&#45;ed33f6b748d1</title>
<polygon fill="#fed37f" stroke="black" points="293.434,-207.562 155,-220 16.5663,-207.562 16.6955,-187.438 293.304,-187.438 293.434,-207.562"/>
<text text-anchor="middle" x="155" y="-197.8" font-family="Times,serif" font-size="14.00">SPECFEM3D GLOBE 5.1.5</text>
</g>
<!-- specfem3d_globe_5.1.5_c2865c2f&#45;09ab&#45;4608&#45;aa54&#45;ed33f6b748d1&#45;&gt;lion_krischer_e11660a9&#45;4a58&#45;445c&#45;8abb&#45;90d7fc4e74db -->
<g id="edge8" class="edge"><title>specfem3d_globe_5.1.5_c2865c2f&#45;09ab&#45;4608&#45;aa54&#45;ed33f6b748d1&#45;&gt;lion_krischer_e11660a9&#45;4a58&#45;445c&#45;8abb&#45;90d7fc4e74db</title>
<path fill="none" stroke="#fed37f" d="M186.354,-217.283C216.79,-231.149 263.076,-252.234 295.902,-267.189"/>
<polygon fill="#fed37f" stroke="#fed37f" points="294.65,-270.464 305.201,-271.425 297.552,-264.094 294.65,-270.464"/>
<text text-anchor="middle" x="292.511" y="-242" font-family="Times,serif" font-size="10.00"> actedOnBehalfOf</text>
</g>
<!-- ann_361100e4&#45;0536&#45;4478&#45;9667&#45;efd7934b09aa -->
<g id="node6" class="node"><title>ann_361100e4&#45;0536&#45;4478&#45;9667&#45;efd7934b09aa</title>
<polygon fill="none" stroke="gray" points="304.5,-135.5 -0.5,-135.5 -0.5,-82.5 310.5,-82.5 310.5,-129.5 304.5,-135.5"/>
<polyline fill="none" stroke="gray" points="304.5,-135.5 304.5,-129.5 "/>
<polyline fill="none" stroke="gray" points="310.5,-129.5 304.5,-129.5 "/>
<text text-anchor="start" x="11" y="-119.5" font-family="Times,serif" font-size="10.00" fill="#555555">softwareName</text>
<text text-anchor="start" x="80" y="-119.5" font-family="Times,serif" font-size="10.00">SPECFEM3D GLOBE</text>
<text text-anchor="start" x="11" y="-105" font-family="Times,serif" font-size="10.00" fill="#555555">softwareVersion</text>
<text text-anchor="start" x="80" y="-105" font-family="Times,serif" font-size="10.00">5.1.5</text>
<text text-anchor="start" x="11" y="-91" font-family="Times,serif" font-size="10.00" fill="#555555">URL</text>
<text text-anchor="start" x="79.6997" y="-91" font-family="Times,serif" font-size="10.00">http://geodynamics.org/cig/software/specfem3d_globe/</text>
</g>
<!-- ann_361100e4&#45;0536&#45;4478&#45;9667&#45;efd7934b09aa&#45;&gt;specfem3d_globe_5.1.5_c2865c2f&#45;09ab&#45;4608&#45;aa54&#45;ed33f6b748d1 -->
<g id="edge3" class="edge"><title>ann_361100e4&#45;0536&#45;4478&#45;9667&#45;efd7934b09aa&#45;&gt;specfem3d_globe_5.1.5_c2865c2f&#45;09ab&#45;4608&#45;aa54&#45;ed33f6b748d1</title>
<path fill="none" stroke="gray" stroke-dasharray="5,2" d="M155,-135.834C155,-152.543 155,-173.635 155,-187.219"/>
</g>
<!-- waveform_data_244ef893&#45;d253&#45;44ec&#45;a4c1&#45;c36ecc42db6d -->
<g id="node7" class="node"><title>waveform_data_244ef893&#45;d253&#45;44ec&#45;a4c1&#45;c36ecc42db6d</title>
<ellipse fill="#fffc87" stroke="#808080" cx="735" cy="-18" rx="66.234" ry="18"/>
<text text-anchor="middle" x="735" y="-13.8" font-family="Times,serif" font-size="14.00">Waveform Data</text>
</g>
<!-- seismic_processing_waveform_simulation_4fd26b5c&#45;149d&#45;4947&#45;afe1&#45;8aebe97e6233 -->
<g id="node8" class="node"><title>seismic_processing_waveform_simulation_4fd26b5c&#45;149d&#45;4947&#45;afe1&#45;8aebe97e6233</title>
<polygon fill="#9fb1fc" stroke="#0000ff" points="804.69,-127 665.31,-127 665.31,-91 804.69,-91 804.69,-127"/>
<text text-anchor="middle" x="735" y="-104.8" font-family="Times,serif" font-size="14.00">Waveform Simulation</text>
</g>
<!-- waveform_data_244ef893&#45;d253&#45;44ec&#45;a4c1&#45;c36ecc42db6d&#45;&gt;seismic_processing_waveform_simulation_4fd26b5c&#45;149d&#45;4947&#45;afe1&#45;8aebe97e6233 -->
<g id="edge14" class="edge"><title>waveform_data_244ef893&#45;d253&#45;44ec&#45;a4c1&#45;c36ecc42db6d&#45;&gt;seismic_processing_waveform_simulation_4fd26b5c&#45;149d&#45;4947&#45;afe1&#45;8aebe97e6233</title>
<path fill="none" stroke="darkgreen" d="M735,-36.1601C735,-48.7187 735,-66.0206 735,-80.4978"/>
<polygon fill="darkgreen" stroke="darkgreen" points="731.5,-80.8926 735,-90.8926 738.5,-80.8926 731.5,-80.8926"/>
<text text-anchor="middle" x="770.403" y="-56" font-family="Times,serif" font-size="10.00" fill="darkgreen"> wasGeneratedBy</text>
</g>
<!-- seismic_processing_waveform_simulation_4fd26b5c&#45;149d&#45;4947&#45;afe1&#45;8aebe97e6233&#45;&gt;specfem3d_globe_5.1.5_c2865c2f&#45;09ab&#45;4608&#45;aa54&#45;ed33f6b748d1 -->
<g id="edge15" class="edge"><title>seismic_processing_waveform_simulation_4fd26b5c&#45;149d&#45;4947&#45;afe1&#45;8aebe97e6233&#45;&gt;specfem3d_globe_5.1.5_c2865c2f&#45;09ab&#45;4608&#45;aa54&#45;ed33f6b748d1</title>
<path fill="none" stroke="#fed37f" d="M688.205,-127.013C677.713,-130.375 666.56,-133.6 656,-136 654.822,-136.268 417.594,-167.002 270.041,-186.108"/>
<polygon fill="#fed37f" stroke="#fed37f" points="269.484,-182.651 260.016,-187.406 270.383,-189.593 269.484,-182.651"/>
<text text-anchor="middle" x="548.764" y="-156" font-family="Times,serif" font-size="10.00"> wasAssociatedWith</text>
</g>
<!-- earth_model_NorthAtlantic_a2c82848&#45;cb2b&#45;469d&#45;b717&#45;65948e11ae49 -->
<g id="node9" class="node"><title>earth_model_NorthAtlantic_a2c82848&#45;cb2b&#45;469d&#45;b717&#45;65948e11ae49</title>
<ellipse fill="#fffc87" stroke="#808080" cx="609" cy="-202" rx="54.6147" ry="18"/>
<text text-anchor="middle" x="609" y="-197.8" font-family="Times,serif" font-size="14.00">Earth Model</text>
</g>
<!-- seismic_processing_waveform_simulation_4fd26b5c&#45;149d&#45;4947&#45;afe1&#45;8aebe97e6233&#45;&gt;earth_model_NorthAtlantic_a2c82848&#45;cb2b&#45;469d&#45;b717&#45;65948e11ae49 -->
<g id="edge13" class="edge"><title>seismic_processing_waveform_simulation_4fd26b5c&#45;149d&#45;4947&#45;afe1&#45;8aebe97e6233&#45;&gt;earth_model_NorthAtlantic_a2c82848&#45;cb2b&#45;469d&#45;b717&#45;65948e11ae49</title>
<path fill="none" stroke="#8b0000" d="M727.378,-127.075C721.391,-138.817 712.053,-154.033 700,-164 688.36,-173.625 673.883,-181.019 659.925,-186.573"/>
<polygon fill="#8b0000" stroke="#8b0000" points="658.533,-183.357 650.386,-190.129 660.978,-189.916 658.533,-183.357"/>
<text text-anchor="middle" x="719.415" y="-156" font-family="Times,serif" font-size="10.00" fill="red"> used</text>
</g>
<!-- config_file_a5c505a9&#45;21e9&#45;4fbb&#45;9e8d&#45;a840d49b062e -->
<g id="node11" class="node"><title>config_file_a5c505a9&#45;21e9&#45;4fbb&#45;9e8d&#45;a840d49b062e</title>
<ellipse fill="#fffc87" stroke="#808080" cx="906" cy="-202" rx="50.3149" ry="18"/>
<text text-anchor="middle" x="906" y="-197.8" font-family="Times,serif" font-size="14.00">Config File</text>
</g>
<!-- seismic_processing_waveform_simulation_4fd26b5c&#45;149d&#45;4947&#45;afe1&#45;8aebe97e6233&#45;&gt;config_file_a5c505a9&#45;21e9&#45;4fbb&#45;9e8d&#45;a840d49b062e -->
<g id="edge9" class="edge"><title>seismic_processing_waveform_simulation_4fd26b5c&#45;149d&#45;4947&#45;afe1&#45;8aebe97e6233&#45;&gt;config_file_a5c505a9&#45;21e9&#45;4fbb&#45;9e8d&#45;a840d49b062e</title>
<path fill="none" stroke="#8b0000" d="M757.058,-127.238C772.265,-138.612 793.252,-153.327 813.17,-164 828.367,-172.143 845.753,-179.539 861.34,-185.542"/>
<polygon fill="#8b0000" stroke="#8b0000" points="860.184,-188.847 870.776,-189.093 862.65,-182.295 860.184,-188.847"/>
<text text-anchor="middle" x="823.415" y="-156" font-family="Times,serif" font-size="10.00" fill="red"> used</text>
</g>
<!-- config_file_667bb515&#45;49ee&#45;4c54&#45;834a&#45;d5c27b0f26f6 -->
<g id="node13" class="node"><title>config_file_667bb515&#45;49ee&#45;4c54&#45;834a&#45;d5c27b0f26f6</title>
<ellipse fill="#fffc87" stroke="#808080" cx="1179" cy="-202" rx="50.3149" ry="18"/>
<text text-anchor="middle" x="1179" y="-197.8" font-family="Times,serif" font-size="14.00">Config File</text>
</g>
<!-- seismic_processing_waveform_simulation_4fd26b5c&#45;149d&#45;4947&#45;afe1&#45;8aebe97e6233&#45;&gt;config_file_667bb515&#45;49ee&#45;4c54&#45;834a&#45;d5c27b0f26f6 -->
<g id="edge10" class="edge"><title>seismic_processing_waveform_simulation_4fd26b5c&#45;149d&#45;4947&#45;afe1&#45;8aebe97e6233&#45;&gt;config_file_667bb515&#45;49ee&#45;4c54&#45;834a&#45;d5c27b0f26f6</title>
<path fill="none" stroke="#8b0000" d="M782.679,-127.096C792.922,-130.373 803.75,-133.543 814,-136 865.162,-148.266 879.043,-145.725 931,-154 1006.62,-166.044 1025.97,-166.706 1101,-182 1110.33,-183.901 1120.22,-186.139 1129.73,-188.4"/>
<polygon fill="#8b0000" stroke="#8b0000" points="1128.91,-191.802 1139.45,-190.751 1130.55,-184.998 1128.91,-191.802"/>
<text text-anchor="middle" x="1006.42" y="-156" font-family="Times,serif" font-size="10.00" fill="red"> used</text>
</g>
<!-- config_file_28048f35&#45;e117&#45;4b7c&#45;93c4&#45;b325e7514e0c -->
<g id="node15" class="node"><title>config_file_28048f35&#45;e117&#45;4b7c&#45;93c4&#45;b325e7514e0c</title>
<ellipse fill="#fffc87" stroke="#808080" cx="1042" cy="-202" rx="50.3149" ry="18"/>
<text text-anchor="middle" x="1042" y="-197.8" font-family="Times,serif" font-size="14.00">Config File</text>
</g>
<!-- seismic_processing_waveform_simulation_4fd26b5c&#45;149d&#45;4947&#45;afe1&#45;8aebe97e6233&#45;&gt;config_file_28048f35&#45;e117&#45;4b7c&#45;93c4&#45;b325e7514e0c -->
<g id="edge11" class="edge"><title>seismic_processing_waveform_simulation_4fd26b5c&#45;149d&#45;4947&#45;afe1&#45;8aebe97e6233&#45;&gt;config_file_28048f35&#45;e117&#45;4b7c&#45;93c4&#45;b325e7514e0c</title>
<path fill="none" stroke="#8b0000" d="M785.9,-127.085C795.226,-130.121 804.89,-133.203 814,-136 875.586,-154.905 947.092,-174.99 993.367,-187.746"/>
<polygon fill="#8b0000" stroke="#8b0000" points="992.562,-191.154 1003.13,-190.432 994.418,-184.405 992.562,-191.154"/>
<text text-anchor="middle" x="917.415" y="-156" font-family="Times,serif" font-size="10.00" fill="red"> used</text>
</g>
<!-- earth_model_NorthAtlantic_a2c82848&#45;cb2b&#45;469d&#45;b717&#45;65948e11ae49&#45;&gt;james_smith_a7606f3a&#45;e9da&#45;4ce2&#45;ae9b&#45;8f702c5a8db7 -->
<g id="edge12" class="edge"><title>earth_model_NorthAtlantic_a2c82848&#45;cb2b&#45;469d&#45;b717&#45;65948e11ae49&#45;&gt;james_smith_a7606f3a&#45;e9da&#45;4ce2&#45;ae9b&#45;8f702c5a8db7</title>
<path fill="none" stroke="#fed37f" d="M620.056,-220.066C626.865,-229.672 636.232,-241.422 646.472,-250 653.79,-256.131 662.35,-261.67 670.798,-266.44"/>
<polygon fill="#fed37f" stroke="#fed37f" points="669.393,-269.657 679.859,-271.304 672.704,-263.49 669.393,-269.657"/>
<text text-anchor="middle" x="687.764" y="-242" font-family="Times,serif" font-size="10.00"> wasAssociatedWith</text>
</g>
<!-- ann_a318a759&#45;ae7e&#45;49ed&#45;8b6b&#45;039ecd55155f -->
<g id="node10" class="node"><title>ann_a318a759&#45;ae7e&#45;49ed&#45;8b6b&#45;039ecd55155f</title>
<polygon fill="none" stroke="gray" points="641,-128.5 487,-128.5 487,-89.5 647,-89.5 647,-122.5 641,-128.5"/>
<polyline fill="none" stroke="gray" points="641,-128.5 641,-122.5 "/>
<polyline fill="none" stroke="gray" points="647,-122.5 641,-122.5 "/>
<text text-anchor="start" x="498" y="-112.5" font-family="Times,serif" font-size="10.00" fill="#555555">modelName</text>
<text text-anchor="start" x="551" y="-112.5" font-family="Times,serif" font-size="10.00">NorthAtlantic</text>
<text text-anchor="start" x="498" y="-98" font-family="Times,serif" font-size="10.00" fill="#555555">description</text>
<text text-anchor="start" x="550.59" y="-98" font-family="Times,serif" font-size="10.00">Some random model.</text>
</g>
<!-- ann_a318a759&#45;ae7e&#45;49ed&#45;8b6b&#45;039ecd55155f&#45;&gt;earth_model_NorthAtlantic_a2c82848&#45;cb2b&#45;469d&#45;b717&#45;65948e11ae49 -->
<g id="edge4" class="edge"><title>ann_a318a759&#45;ae7e&#45;49ed&#45;8b6b&#45;039ecd55155f&#45;&gt;earth_model_NorthAtlantic_a2c82848&#45;cb2b&#45;469d&#45;b717&#45;65948e11ae49</title>
<path fill="none" stroke="gray" stroke-dasharray="5,2" d="M575.702,-128.855C583.199,-145.098 593.924,-168.335 601.159,-184.01"/>
</g>
<!-- ann_7eb869fa&#45;3ba7&#45;4df1&#45;93a2&#45;476fd4224e04 -->
<g id="node12" class="node"><title>ann_7eb869fa&#45;3ba7&#45;4df1&#45;93a2&#45;476fd4224e04</title>
<polygon fill="none" stroke="gray" points="983.5,-128.5 822.5,-128.5 822.5,-89.5 989.5,-89.5 989.5,-122.5 983.5,-128.5"/>
<polyline fill="none" stroke="gray" points="983.5,-128.5 983.5,-122.5 "/>
<polyline fill="none" stroke="gray" points="989.5,-122.5 983.5,-122.5 "/>
<text text-anchor="start" x="834" y="-112.5" font-family="Times,serif" font-size="10.00" fill="#555555">filename</text>
<text text-anchor="start" x="883" y="-112.5" font-family="Times,serif" font-size="10.00">Par_file</text>
<text text-anchor="start" x="834" y="-98" font-family="Times,serif" font-size="10.00" fill="#555555">fileContent</text>
<text text-anchor="start" x="882.804" y="-98" font-family="Times,serif" font-size="10.00">PDE 2012 4 12 7 15 4...</text>
</g>
<!-- ann_7eb869fa&#45;3ba7&#45;4df1&#45;93a2&#45;476fd4224e04&#45;&gt;config_file_a5c505a9&#45;21e9&#45;4fbb&#45;9e8d&#45;a840d49b062e -->
<g id="edge5" class="edge"><title>ann_7eb869fa&#45;3ba7&#45;4df1&#45;93a2&#45;476fd4224e04&#45;&gt;config_file_a5c505a9&#45;21e9&#45;4fbb&#45;9e8d&#45;a840d49b062e</title>
<path fill="none" stroke="gray" stroke-dasharray="5,2" d="M906,-128.855C906,-144.994 906,-168.037 906,-183.708"/>
</g>
<!-- ann_5fff4d51&#45;5f9b&#45;4cc4&#45;9e92&#45;79d8cb3634e4 -->
<g id="node14" class="node"><title>ann_5fff4d51&#45;5f9b&#45;4cc4&#45;9e92&#45;79d8cb3634e4</title>
<polygon fill="none" stroke="gray" points="1259,-127 1133,-127 1133,-91 1265,-91 1265,-121 1259,-127"/>
<polyline fill="none" stroke="gray" points="1259,-127 1259,-121 "/>
<polyline fill="none" stroke="gray" points="1265,-121 1259,-121 "/>
<text text-anchor="start" x="1144" y="-105.5" font-family="Times,serif" font-size="10.00" fill="#555555">filename</text>
<text text-anchor="start" x="1182.67" y="-105.5" font-family="Times,serif" font-size="10.00">CMTSOLUTION</text>
</g>
<!-- ann_5fff4d51&#45;5f9b&#45;4cc4&#45;9e92&#45;79d8cb3634e4&#45;&gt;config_file_667bb515&#45;49ee&#45;4c54&#45;834a&#45;d5c27b0f26f6 -->
<g id="edge6" class="edge"><title>ann_5fff4d51&#45;5f9b&#45;4cc4&#45;9e92&#45;79d8cb3634e4&#45;&gt;config_file_667bb515&#45;49ee&#45;4c54&#45;834a&#45;d5c27b0f26f6</title>
<path fill="none" stroke="gray" stroke-dasharray="5,2" d="M1195.24,-127.116C1191.66,-143.386 1186.32,-167.716 1182.74,-183.96"/>
</g>
<!-- ann_91616e94&#45;481a&#45;4709&#45;823d&#45;cbb738876b3c -->
<g id="node16" class="node"><title>ann_91616e94&#45;481a&#45;4709&#45;823d&#45;cbb738876b3c</title>
<polygon fill="none" stroke="gray" points="1108.5,-127 1007.5,-127 1007.5,-91 1114.5,-91 1114.5,-121 1108.5,-127"/>
<polyline fill="none" stroke="gray" points="1108.5,-127 1108.5,-121 "/>
<polyline fill="none" stroke="gray" points="1114.5,-121 1108.5,-121 "/>
<text text-anchor="start" x="1019" y="-105.5" font-family="Times,serif" font-size="10.00" fill="#555555">filename</text>
<text text-anchor="start" x="1057.78" y="-105.5" font-family="Times,serif" font-size="10.00">STATIONS</text>
</g>
<!-- ann_91616e94&#45;481a&#45;4709&#45;823d&#45;cbb738876b3c&#45;&gt;config_file_28048f35&#45;e117&#45;4b7c&#45;93c4&#45;b325e7514e0c -->
<g id="edge7" class="edge"><title>ann_91616e94&#45;481a&#45;4709&#45;823d&#45;cbb738876b3c&#45;&gt;config_file_28048f35&#45;e117&#45;4b7c&#45;93c4&#45;b325e7514e0c</title>
<path fill="none" stroke="gray" stroke-dasharray="5,2" d="M1057.43,-127.116C1054.03,-143.386 1048.95,-167.716 1045.56,-183.96"/>
</g>
</g>
</svg>
